<?xml version="1.0" encoding="UTF-8"?>
<svg xmlns="http://www.w3.org/2000/svg" xmlns:xlink="http://www.w3.org/1999/xlink" width="30px" height="30px" viewBox="0 0 30 30" version="1.1">
<g id="surface1">
<path style=" stroke:none;fill-rule:nonzero;fill:rgb(0%,0%,0%);fill-opacity:1;" d="M 12.484375 18.332031 C 12.523438 18.355469 12.574219 18.355469 12.613281 18.332031 L 18.011719 15.109375 C 18.050781 15.085938 18.074219 15.042969 18.074219 15 C 18.074219 14.957031 18.050781 14.914062 18.011719 14.890625 L 12.613281 11.667969 C 12.574219 11.644531 12.523438 11.644531 12.484375 11.667969 C 12.445312 11.6875 12.421875 11.730469 12.421875 11.777344 L 12.421875 18.222656 C 12.421875 18.269531 12.445312 18.3125 12.484375 18.332031 Z M 12.484375 18.332031 "/>
<path style=" stroke:none;fill-rule:nonzero;fill:rgb(0%,0%,0%);fill-opacity:1;" d="M 0 0.9375 L 0 29.0625 L 30 29.0625 L 30 0.9375 Z M 24.609375 3.28125 L 27.890625 3.28125 L 27.890625 5.15625 L 24.609375 5.15625 Z M 18.984375 3.28125 L 22.265625 3.28125 L 22.265625 5.15625 L 18.984375 5.15625 Z M 13.359375 3.28125 L 16.640625 3.28125 L 16.640625 5.15625 L 13.359375 5.15625 Z M 7.734375 3.28125 L 11.015625 3.28125 L 11.015625 5.15625 L 7.734375 5.15625 Z M 2.109375 3.28125 L 5.390625 3.28125 L 5.390625 5.15625 L 2.109375 5.15625 Z M 5.390625 26.71875 L 2.109375 26.71875 L 2.109375 24.84375 L 5.390625 24.84375 Z M 11.015625 26.71875 L 7.734375 26.71875 L 7.734375 24.84375 L 11.015625 24.84375 Z M 16.640625 26.71875 L 13.359375 26.71875 L 13.359375 24.84375 L 16.640625 24.84375 Z M 22.265625 26.71875 L 18.984375 26.71875 L 18.984375 24.84375 L 22.265625 24.84375 Z M 27.890625 26.71875 L 24.609375 26.71875 L 24.609375 24.84375 L 27.890625 24.84375 Z M 27.929688 22.96875 L 2.148438 22.96875 L 2.148438 7.03125 L 27.929688 7.03125 Z M 27.929688 22.96875 "/>
</g>
</svg>
